<?xml version="1.0" encoding="UTF-8"?>
<svg xmlns="http://www.w3.org/2000/svg" viewBox="0 0 256 256" width="256" height="256">
  <!-- Background -->
  <circle cx="128" cy="128" r="128" fill="#25D366"/>
  
  <!-- WhatsApp Phone Icon -->
  <path fill="#FFFFFF" d="M128 28C72.5 28 28 72.5 28 128c0 17.7 4.7 34.8 13.5 50L28 228l52-13.5C95.2 223.3 111.3 228 128 228c55.5 0 100-44.5 100-100S183.5 28 128 28zm0 183c-15.4 0-30.5-4.3-43.5-12.5l-3-2-32.5 8.5 8.7-31.7-2.2-3.3C47.3 157.5 43 142.9 43 128c0-46.9 38.1-85 85-85s85 38.1 85 85-38.1 85-85 85z"/>
  
  <!-- Phone Symbol -->
  <path fill="#FFFFFF" d="M172.5 149.5c-2.8-1.4-16.5-8.1-19.1-9.1-2.5-0.9-4.4-1.4-6.2 1.4-1.8 2.8-7.1 9.1-8.7 10.9-1.6 1.8-3.2 2.1-6 0.7-2.8-1.4-11.8-4.4-22.5-13.9-8.3-7.4-13.9-16.6-15.5-19.4-1.6-2.8-0.2-4.3 1.2-5.7 1.3-1.3 2.8-3.2 4.2-4.8 1.4-1.6 1.9-2.8 2.8-4.6 0.9-1.8 0.5-3.4-0.2-4.8-0.7-1.4-6.2-15-8.5-20.5-2.2-5.4-4.5-4.6-6.2-4.7-1.6-0.1-3.4-0.1-5.3-0.1-1.8 0-4.8 0.7-7.4 3.5-2.5 2.8-9.6 9.4-9.6 22.9s9.8 26.6 11.2 28.4c1.4 1.8 19.3 29.5 46.8 41.4 6.5 2.8 11.6 4.5 15.6 5.8 6.6 2.1 12.5 1.8 17.3 1.1 5.3-0.8 16.5-6.7 18.8-13.2 2.3-6.5 2.3-12.1 1.6-13.2-0.7-1.2-2.5-1.9-5.3-3.3z"/>
  
  <!-- Chrome accent -->
  <circle cx="200" cy="56" r="32" fill="#4285F4"/>
  <circle cx="200" cy="56" r="20" fill="#FFFFFF"/>
  <circle cx="200" cy="56" r="12" fill="#34A853"/>
</svg>
